{
  "accessors": [
    {
      "bufferView": 2,
      "componentType": 5126,
      "count": 65532,
      "max": [
        0.15032774209976196,
        0.253244549036026,
        0.1350453644990921
      ],
      "min": [
        -0.1514008641242981,
        -0.22968834638595581,
        -0.10904336720705032
      ],
      "type": "VEC3"
    },
    {
      "bufferView": 2,
      "byteOffset": 786384,
      "componentType": 5126,
      "count": 65532,
      "max": [
        0.99997150897979736,
        0.99992454051971436,
        0.99996387958526611
      ],
      "min": [
        -0.99998795986175537,
        -0.99997258186340332,
        -0.99986612796783447
      ],
      "type": "VEC3"
    },
    {
      "bufferView": 1,
      "componentType": 5126,
      "count": 65532,
      "max": [
        0.94375002384185791,
        0.99969398975372314
      ],
      "min": [
        0.040038999170064926,
        0.00030799998785369098
      ],
      "type": "VEC2"
    },
    {
      "bufferView": 0,
      "componentType": 5125,
      "count": 244350,
      "max": [
        65531
      ],
      "min": [
        0
      ],
      "type": "SCALAR"
    },
    {
      "bufferView": 2,
      "byteOffset": 1572768,
      "componentType": 5126,
      "count": 65532,
      "max": [
        0.15040493011474609,
        0.25315037369728088,
        0.13664412498474121
      ],
      "min": [
        -0.14749617874622345,
        -0.22963632643222809,
        -0.10289259999990463
      ],
      "type": "VEC3"
    },
    {
      "bufferView": 2,
      "byteOffset": 2359152,
      "componentType": 5126,
      "count": 65532,
      "max": [
        0.99997150897979736,
        0.99981510639190674,
        0.9999854564666748
      ],
      "min": [
        -0.99994683265686035,
        -0.99999046325683594,
        -0.99999833106994629
      ],
      "type": "VEC3"
    },
    {
      "bufferView": 1,
      "byteOffset": 524256,
      "componentType": 5126,
      "count": 65532,
      "max": [
        0.60388898849487305,
        0.99142801761627197
      ],
      "min": [
        0.00036000000545755029,
        0.021632999181747437
      ],
      "type": "VEC2"
    },
    {
      "bufferView": 0,
      "byteOffset": 977400,
      "componentType": 5125,
      "count": 343680,
      "max": [
        65531
      ],
      "min": [
        0
      ],
      "type": "SCALAR"
    },
    {
      "bufferView": 2,
      "byteOffset": 3145536,
      "componentType": 5126,
      "count": 65532,
      "max": [
        0.14736835658550262,
        0.11001981049776077,
        0.10654307901859283
      ],
      "min": [
        -0.1425190269947052,
        -0.20699600875377655,
        -0.10945418477058411
      ],
      "type": "VEC3"
    },
    {
      "bufferView": 2,
      "byteOffset": 3931920,
      "componentType": 5126,
      "count": 65532,
      "max": [
        0.99999499320983887,
        0.99980282783508301,
        0.99985241889953613
      ],
      "min": [
        -0.99980032444000244,
        -0.99886596202850342,
        -0.99997520446777344
      ],
      "type": "VEC3"
    },
    {
      "bufferView": 1,
      "byteOffset": 1048512,
      "componentType": 5126,
      "count": 65532,
      "max": [
        0.079058997333049774,
        0.99968397617340088
      ],
      "min": [
        0.0003060000017285347,
        0.0080460002645850182
      ],
      "type": "VEC2"
    },
    {
      "bufferView": 0,
      "byteOffset": 2352120,
      "componentType": 5125,
      "count": 348810,
      "max": [
        65531
      ],
      "min": [
        0
      ],
      "type": "SCALAR"
    },
    {
      "bufferView": 2,
      "byteOffset": 4718304,
      "componentType": 5126,
      "count": 65532,
      "max": [
        0.14869651198387146,
        0.25264286994934082,
        0.13750214874744415
      ],
      "min": [
        -0.15138392150402069,
        -0.22957830131053925,
        -0.10936404764652252
      ],
      "type": "VEC3"
    },
    {
      "bufferView": 2,
      "byteOffset": 5504688,
      "componentType": 5126,
      "count": 65532,
      "max": [
        0.99994909763336182,
        0.99992454051971436,
        0.99943351745605469
      ],
      "min": [
        -0.99999630451202393,
        -0.99992108345031738,
        -0.99994850158691406
      ],
      "type": "VEC3"
    },
    {
      "bufferView": 1,
      "byteOffset": 1572768,
      "componentType": 5126,
      "count": 65532,
      "max": [
        0.3588080108165741,
        0.99967700242996216
      ],
      "min": [
        0.00032900000223889947,
        0.00041400000918656588
      ],
      "type": "VEC2"
    },
    {
      "bufferView": 0,
      "byteOffset": 3747360,
      "componentType": 5125,
      "count": 340122,
      "max": [
        65531
      ],
      "min": [
        0
      ],
      "type": "SCALAR"
    },
    {
      "bufferView": 2,
      "byteOffset": 6291072,
      "componentType": 5126,
      "count": 65532,
      "max": [
        0.14654351770877838,
        0.25549101829528809,
        0.12929318845272064
      ],
      "min": [
        -0.15034520626068115,
        -0.22951129078865051,
        -0.10877832025289536
      ],
      "type": "VEC3"
    },
    {
      "bufferView": 2,
      "byteOffset": 7077456,
      "componentType": 5126,
      "count": 65532,
      "max": [
        0.99999964237213135,
        0.99983549118041992,
        0.99978482723236084
      ],
      "min": [
        -0.99998009204864502,
        -0.9999920129776001,
        -0.99996936321258545
      ],
      "type": "VEC3"
    },
    {
      "bufferView": 1,
      "byteOffset": 2097024,
      "componentType": 5126,
      "count": 65532,
      "max": [
        0.47773000597953796,
        0.99968802928924561
      ],
      "min": [
        0.0003169999981764704,
        0.00037200000951997936
      ],
      "type": "VEC2"
    },
    {
      "bufferView": 0,
      "byteOffset": 5107848,
      "componentType": 5125,
      "count": 328683,
      "max": [
        65531
      ],
      "min": [
        0
      ],
      "type": "SCALAR"
    },
    {
      "bufferView": 2,
      "byteOffset": 7863840,
      "componentType": 5126,
      "count": 46059,
      "max": [
        0.14926713705062866,
        0.25549101829528809,
        0.13750214874744415
      ],
      "min": [
        -0.14586949348449707,
        -0.22878319025039673,
        -0.10575736314058304
      ],
      "type": "VEC3"
    },
    {
      "bufferView": 2,
      "byteOffset": 8416548,
      "componentType": 5126,
      "count": 46059,
      "max": [
        0.99972760677337646,
        0.99992454051971436,
        0.99999153614044189
      ],
      "min": [
        -0.99998950958251953,
        -0.99999940395355225,
        -0.99999690055847168
      ],
      "type": "VEC3"
    },
    {
      "bufferView": 1,
      "byteOffset": 2621280,
      "componentType": 5126,
      "count": 46059,
      "max": [
        0.5918310284614563,
        0.99473202228546143
      ],
      "min": [
        0.032719001173973083,
        0.00034200001391582191
      ],
      "type": "VEC2"
    },
    {
      "bufferView": 0,
      "byteOffset": 6422580,
      "componentType": 5125,
      "count": 219471,
      "max": [
        46058
      ],
      "min": [
        0
      ],
      "type": "SCALAR"
    }
  ],
  "asset": {
    "extras": {
      "author": "marcteuber (https://sketchfab.com/marcteuber)",
      "license": "CC-BY-4.0 (http://creativecommons.org/licenses/by/4.0/)",
      "source": "https://sketchfab.com/3d-models/greek-sculpture-scan-sofokles-vaporwave-32fd03fc110342598ae1da23e31afda4",
      "title": "Greek sculpture scan - Sofokles [Vaporwave]"
    },
    "generator": "Sketchfab-10.39.1",
    "version": "2.0"
  },
  "bufferViews": [
    {
      "buffer": 0,
      "byteLength": 7300464,
      "byteOffset": 0,
      "name": "floatBufferViews",
      "target": 34963
    },
    {
      "buffer": 0,
      "byteLength": 2989752,
      "byteOffset": 7300464,
      "byteStride": 8,
      "name": "floatBufferViews",
      "target": 34962
    },
    {
      "buffer": 0,
      "byteLength": 8969256,
      "byteOffset": 10290216,
      "byteStride": 12,
      "name": "floatBufferViews",
      "target": 34962
    }
  ],
  "buffers": [
    {
      "byteLength": 19259472,
      "uri": "scene.bin"
    }
  ],
  "materials": [
    {
      "doubleSided": true,
      "emissiveFactor": [
        0,
        0,
        0
      ],
      "name": "Material.001",
      "pbrMetallicRoughness": {
        "baseColorFactor": [
          1,
          1,
          1,
          1
        ],
        "metallicFactor": 0,
        "roughnessFactor": 0.29355836054210827
      }
    }
  ],
  "meshes": [
    {
      "name": "texturedMesh.001_Material.001_0",
      "primitives": [
        {
          "attributes": {
            "NORMAL": 1,
            "POSITION": 0,
            "TEXCOORD_0": 2
          },
          "indices": 3,
          "material": 0,
          "mode": 4
        }
      ]
    },
    {
      "name": "texturedMesh.001_Material.001_0",
      "primitives": [
        {
          "attributes": {
            "NORMAL": 5,
            "POSITION": 4,
            "TEXCOORD_0": 6
          },
          "indices": 7,
          "material": 0,
          "mode": 4
        }
      ]
    },
    {
      "name": "texturedMesh.001_Material.001_0",
      "primitives": [
        {
          "attributes": {
            "NORMAL": 9,
            "POSITION": 8,
            "TEXCOORD_0": 10
          },
          "indices": 11,
          "material": 0,
          "mode": 4
        }
      ]
    },
    {
      "name": "texturedMesh.001_Material.001_0",
      "primitives": [
        {
          "attributes": {
            "NORMAL": 13,
            "POSITION": 12,
            "TEXCOORD_0": 14
          },
          "indices": 15,
          "material": 0,
          "mode": 4
        }
      ]
    },
    {
      "name": "texturedMesh.001_Material.001_0",
      "primitives": [
        {
          "attributes": {
            "NORMAL": 17,
            "POSITION": 16,
            "TEXCOORD_0": 18
          },
          "indices": 19,
          "material": 0,
          "mode": 4
        }
      ]
    },
    {
      "name": "texturedMesh.001_Material.001_0",
      "primitives": [
        {
          "attributes": {
            "NORMAL": 21,
            "POSITION": 20,
            "TEXCOORD_0": 22
          },
          "indices": 23,
          "material": 0,
          "mode": 4
        }
      ]
    }
  ],
  "nodes": [
    {
      "children": [
        1
      ],
      "name": "RootNode (gltf orientation matrix)",
      "rotation": [
        -0.70710678118654746,
        -0,
        -0,
        0.70710678118654757
      ]
    },
    {
      "children": [
        2
      ],
      "name": "RootNode (model correction matrix)"
    },
    {
      "children": [
        3
      ],
      "matrix": [
        1,
        0,
        0,
        0,
        0,
        0,
        1,
        0,
        0,
        -1,
        0,
        0,
        0,
        0,
        0,
        1
      ],
      "name": "820c318b25d44ade832926870862fa1a.fbx"
    },
    {
      "children": [
        4
      ],
      "name": "RootNode"
    },
    {
      "children": [
        5,
        6,
        7,
        8,
        9,
        10
      ],
      "matrix": [
        1067.5534768234224,
        145.2113971985967,
        -92.532772320018466,
        0,
        157.47285091594131,
        -1058.4181668498225,
        155.79678756529236,
        0,
        -69.64887846753237,
        -167.28404455867027,
        -1066.0596211589152,
        0,
        -16.218427658081055,
        198.29669189453125,
        -63.104866027832031,
        1
      ],
      "name": "texturedMesh.001"
    },
    {
      "mesh": 0,
      "name": "texturedMesh.001_Material.001_0"
    },
    {
      "mesh": 1,
      "name": "texturedMesh.001_Material.001_0"
    },
    {
      "mesh": 2,
      "name": "texturedMesh.001_Material.001_0"
    },
    {
      "mesh": 3,
      "name": "texturedMesh.001_Material.001_0"
    },
    {
      "mesh": 4,
      "name": "texturedMesh.001_Material.001_0"
    },
    {
      "mesh": 5,
      "name": "texturedMesh.001_Material.001_0"
    }
  ],
  "scene": 0,
  "scenes": [
    {
      "name": "OSG_Scene",
      "nodes": [
        0
      ]
    }
  ]
}

